<?xml version="1.0" standalone="no"?>
<!DOCTYPE svg PUBLIC "-//W3C//DTD SVG 20010904//EN"
 "http://www.w3.org/TR/2001/REC-SVG-20010904/DTD/svg10.dtd">
<svg version="1.0" xmlns="http://www.w3.org/2000/svg"
 width="260.000000pt" height="260.000000pt" viewBox="0 0 260.000000 260.000000"
 preserveAspectRatio="xMidYMid meet">
<metadata>
Created by potrace 1.11, written by Peter Selinger 2001-2013
</metadata>
<g transform="translate(0.000000,260.000000) scale(0.100000,-0.100000)"
fill="#000000" stroke="none">
<path d="M0 1300 l0 -1300 1300 0 1300 0 0 1300 0 1300 -1300 0 -1300 0 0
-1300z m1105 625 c146 -38 267 -150 325 -300 22 -55 24 -80 29 -301 l6 -241
29 -37 c68 -90 190 -86 260 8 20 27 21 41 24 457 l3 429 159 0 160 0 0 -320 0
-320 80 0 80 0 0 -160 0 -160 -92 0 -93 0 -32 -63 c-53 -101 -145 -184 -254
-228 -66 -26 -195 -36 -268 -20 -130 28 -261 128 -323 246 l-33 65 -172 0
-173 0 0 -160 0 -160 -160 0 -160 0 0 160 0 160 -80 0 -80 0 0 160 0 160 80 0
80 0 0 103 c0 185 46 303 156 406 63 59 141 104 211 120 61 14 174 12 238 -4z"/>
<path d="M915 1607 c-68 -32 -95 -92 -95 -217 l0 -90 161 0 161 0 -4 109 c-3
118 -12 141 -70 184 -33 25 -113 32 -153 14z"/>
</g>
</svg>
